<?xml version="1.0" encoding="iso-8859-1"?>
<!-- Generator: Adobe Illustrator 19.0.0, SVG Export Plug-In . SVG Version: 6.00 Build 0)  -->
<svg version="1.1" id="Layer_1" xmlns="http://www.w3.org/2000/svg" xmlns:xlink="http://www.w3.org/1999/xlink" x="0px" y="0px"
	 viewBox="0 0 512.002 512.002" style="enable-background:new 0 0 512.002 512.002;" xml:space="preserve">
<path style="fill:pink" d="M117.753,492.121c-4.271,0-8.55-1.049-12.503-3.157c-8.343-4.452-13.582-12.751-14.013-22.199
	l-2.515-55.095H44.929C20.155,411.669,0,391.514,0,366.741V64.81C0,40.035,20.155,19.88,44.929,19.88h422.143
	c24.775,0,44.929,20.155,44.929,44.929v301.931c0,24.775-20.155,44.929-44.929,44.929h-55.834c-8.79,0-15.919-7.127-15.919-15.919
	c0-8.792,7.128-15.919,15.919-15.919h55.834c7.218,0,13.092-5.872,13.092-13.092V64.81c0-7.219-5.872-13.092-13.092-13.092H44.929
	c-7.218,0-13.092,5.872-13.092,13.092v301.931c0,7.219,5.872,13.092,13.092,13.092h59.002c8.51,0,15.515,6.692,15.901,15.193
	l2.802,61.356l122.461-74.242c2.488-1.509,5.342-2.307,8.254-2.307h92.64c8.79,0,15.919,7.127,15.919,15.919
	c0,8.792-7.128,15.919-15.919,15.919h-88.19l-126.303,76.573C127.236,490.824,122.5,492.121,117.753,492.121z"/>
<path style="fill:#B0DACC;" d="M479.062,85.999L271.382,244.352c-9.085,6.926-21.678,6.926-30.763,0L32.938,85.999
	c-19.305-14.72-8.895-45.541,15.381-45.541h415.363C487.958,40.459,498.369,71.281,479.062,85.999z"/>
<path style="fill:#211E48;" d="M255.999,265.467c-8.993,0-17.883-3.004-25.036-8.456L23.285,98.66
	C8.97,87.744,3.442,69.671,9.203,52.616c5.759-17.054,21.115-28.075,39.116-28.075H463.68c18.003,0,33.356,11.021,39.116,28.075
	c5.761,17.055,0.232,35.128-14.082,46.044L281.032,257.012C273.884,262.463,264.993,265.467,255.999,265.467z M48.32,56.377
	c-6.122,0-8.3,4.494-8.953,6.426c-0.653,1.931-1.644,6.826,3.222,10.538l207.682,158.353c2.097,1.6,4.274,1.936,5.729,1.936
	c1.455,0,3.631-0.336,5.728-1.934L469.412,73.342c4.868-3.712,3.876-8.606,3.222-10.538c-0.653-1.933-2.83-6.426-8.953-6.426
	L48.32,56.377L48.32,56.377z"/>
<g>
</g>
<g>
</g>
<g>
</g>
<g>
</g>
<g>
</g>
<g>
</g>
<g>
</g>
<g>
</g>
<g>
</g>
<g>
</g>
<g>
</g>
<g>
</g>
<g>
</g>
<g>
</g>
<g>
</g>
</svg>
